<?xml version="1.0" standalone="no"?>
<!DOCTYPE svg PUBLIC "-//W3C//DTD SVG 20010904//EN"
 "http://www.w3.org/TR/2001/REC-SVG-20010904/DTD/svg10.dtd">
<svg version="1.0" xmlns="http://www.w3.org/2000/svg"
 width="1280.000000pt" height="1012.000000pt" viewBox="0 0 1280.000000 1012.000000"
 preserveAspectRatio="xMidYMid meet">
<g transform="translate(0.000000,1012.000000) scale(0.100000,-0.100000)"
fill="#333333" stroke="none">
<path d="M1895 10110 c-88 -4 -463 -11 -832 -15 l-673 -8 0 -369 0 -368 308 0
c169 0 635 5 1035 11 545 9 735 9 754 0 19 -9 66 -96 223 -414 109 -221 272
-559 362 -752 l163 -350 3 -2462 2 -2463 4003 0 4003 0 763 2348 c420 1291
769 2360 777 2376 11 23 14 88 14 299 l0 270 -1537 -7 c-846 -3 -2346 -11
-3333 -16 -987 -5 -2298 -11 -2914 -12 l-1118 -3 -120 260 c-308 669 -633
1319 -707 1417 -28 36 -78 87 -111 113 -104 80 -184 108 -411 144 -72 12 -398
12 -654 1z m9771 -2845 c6 -15 -1081 -3378 -1099 -3403 -8 -9 -655 -12 -3201
-10 l-3191 3 -3 1684 c-1 927 1 1688 5 1692 5 4 1027 13 2273 19 2910 16 4808
26 5033 28 149 2 179 0 183 -13z"/>
<path d="M5106 2409 c-557 -46 -1011 -479 -1086 -1037 -17 -121 -8 -320 20
-432 57 -236 171 -434 346 -600 188 -178 397 -277 683 -322 132 -21 137 -21
256 -4 259 37 441 109 617 243 386 295 557 804 428 1279 -149 551 -684 920
-1264 873z m257 -605 c209 -54 387 -233 442 -444 24 -90 16 -260 -15 -349 -29
-82 -108 -198 -173 -256 -68 -60 -187 -119 -283 -141 -266 -59 -549 81 -669
331 -68 141 -83 273 -45 420 53 207 227 382 435 440 70 19 234 19 308 -1z"/>
<path d="M9227 2409 c-503 -39 -937 -409 -1060 -904 -106 -424 25 -869 343
-1168 190 -179 408 -280 698 -323 132 -19 185 -16 372 22 592 122 1006 680
949 1282 -28 299 -156 565 -370 767 -252 238 -576 351 -932 324z m315 -622
c181 -70 311 -206 373 -390 21 -63 26 -98 26 -175 1 -118 -12 -172 -61 -277
-148 -310 -526 -434 -833 -273 -92 48 -215 174 -261 268 -89 183 -86 378 11
563 52 100 156 203 254 251 116 57 157 66 299 62 106 -2 135 -7 192 -29z"/>
</g>
</svg>
